<svg version="1.1" xmlns="http://www.w3.org/2000/svg" viewBox="0 0 2090.8694841884944 1247.9999389648438" width="2090.8694841884944" height="1247.9999389648438" filter="invert(93%) hue-rotate(180deg)">
  <!-- svg-source:excalidraw -->
  
  <defs>
    <style class="style-fonts">
      @font-face {
        font-family: "Virgil";
        src: url("https://excalidraw.com/Virgil.woff2");
      }
      @font-face {
        font-family: "Cascadia";
        src: url("https://excalidraw.com/Cascadia.woff2");
      }
    </style>
  </defs>
  <rect x="0" y="0" width="2090.8694841884944" height="1247.9999389648438" fill="#ffffff"></rect><g stroke-linecap="round" transform="translate(10 10) rotate(0 750.6387692945499 613.9999694824219)"><path d="M32 0 M32 0 C559.27 5.96, 1086.84 5.85, 1469.28 0 M32 0 C343.15 1.69, 654.83 1.88, 1469.28 0 M1469.28 0 C1492.42 -0.25, 1499.44 10.01, 1501.28 32 M1469.28 0 C1488.6 0.37, 1499.92 10.7, 1501.28 32 M1501.28 32 C1499.81 456.9, 1499.26 880.89, 1501.28 1196 M1501.28 32 C1502.7 272.71, 1502.73 512.95, 1501.28 1196 M1501.28 1196 C1502.1 1218.2, 1491.38 1226.73, 1469.28 1228 M1501.28 1196 C1503.06 1219.52, 1490.01 1226.79, 1469.28 1228 M1469.28 1228 C894.21 1225.43, 319.41 1225.79, 32 1228 M1469.28 1228 C1161.87 1231.63, 854.13 1232.02, 32 1228 M32 1228 C9.17 1226.65, 1.8 1219.03, 0 1196 M32 1228 C10.17 1227.67, -0.99 1218.45, 0 1196 M0 1196 C-0.86 757.61, -0.41 319.93, 0 32 M0 1196 C-1.58 764.09, -1.37 332.68, 0 32 M0 32 C-1.87 9.71, 9.39 0.77, 32 0 M0 32 C-1.81 8.78, 9.65 0.34, 32 0" stroke="#000000" stroke-width="2" fill="none"></path></g><g stroke-linecap="round" transform="translate(13.653061276179415 19.679912473748118) rotate(0 747.8290478930279 136.20000457763672)"><path d="M33.54 1.6 L1471.16 2.23 L1478.13 2.52 L1485.9 7.52 L1490.91 13.89 L1493.27 22.93 L1495.69 248.9 L1493.56 252.52 L1485.88 266.29 L1475.8 270.41 L1462.11 272.73 L26.1 271.16 L19.15 268.76 L9.31 265.17 L2.45 254.17 L-0.95 247.11 L0.76 30.09 L2.84 16.99 L8.73 8.61 L19.97 0.26 L33.27 0.36" stroke="none" stroke-width="0" fill="#82c91e"></path><path d="M32 0 M32 0 C601.64 -4.72, 1171.44 -4.8, 1463.66 0 M32 0 C494.26 -2.67, 956.33 -2.84, 1463.66 0 M1463.66 0 C1486.86 1.65, 1497.46 11.84, 1495.66 32 M1463.66 0 C1486.73 0.4, 1494.79 11.57, 1495.66 32 M1495.66 32 C1494.97 78.74, 1494.6 124.1, 1495.66 240.4 M1495.66 32 C1495.67 84.31, 1495.48 136.27, 1495.66 240.4 M1495.66 240.4 C1496.45 263.51, 1485.97 273.08, 1463.66 272.4 M1495.66 240.4 C1497.82 260.1, 1483.6 271.03, 1463.66 272.4 M1463.66 272.4 C1131.56 270.17, 799.72 271.44, 32 272.4 M1463.66 272.4 C939.16 277.63, 414.57 277.59, 32 272.4 M32 272.4 C10.39 271.9, 0.54 261.56, 0 240.4 M32 272.4 C10.69 272.12, -2.3 262.65, 0 240.4 M0 240.4 C0.76 171.62, 1.78 105.7, 0 32 M0 240.4 C-1.48 188.37, -1.56 135.88, 0 32 M0 32 C0.13 10.48, 12.29 0.71, 32 0 M0 32 C-0.87 11.27, 11.68 -0.6, 32 0" stroke="#000000" stroke-width="2" fill="none"></path></g><g stroke-linecap="round" transform="translate(337.8722234831873 94.80004990873113) rotate(0 274.40008544921875 65.20000457763672)"><path d="M32 0 M32 0 C224.63 0.98, 417.41 2.24, 516.8 0 M32 0 C143.41 -1.15, 255.19 -1.2, 516.8 0 M516.8 0 C538.75 0.4, 548.07 10.04, 548.8 32 M516.8 0 C537.69 0.16, 548.41 9.29, 548.8 32 M548.8 32 C549.28 46.18, 548.87 59.91, 548.8 98.4 M548.8 32 C548.34 48.98, 548.88 67.35, 548.8 98.4 M548.8 98.4 C547.81 118.93, 537.7 130.64, 516.8 130.4 M548.8 98.4 C549.59 121.18, 538.02 132.19, 516.8 130.4 M516.8 130.4 C324.43 129.23, 132.19 128.61, 32 130.4 M516.8 130.4 C393.58 132.27, 270.99 132.3, 32 130.4 M32 130.4 C12.51 130.65, -0.67 118.77, 0 98.4 M32 130.4 C11.52 132.37, -1.51 118.9, 0 98.4 M0 98.4 C0.26 79.81, 1.19 61.3, 0 32 M0 98.4 C-0.61 75.42, 0.08 53.62, 0 32 M0 32 C0.15 12.45, 10.42 0.54, 32 0 M0 32 C1.92 8.76, 11.87 -1.84, 32 0" stroke="#000000" stroke-width="2" fill="none"></path></g><g stroke-linecap="round" transform="translate(151.16342459382145 304.1807167902663) rotate(0 672.6744019364941 90.51426696777344)"><path d="M32.94 -0.18 L1319.22 1.71 L1326.53 1.81 L1337.73 8.15 L1339.4 13.36 L1345.39 24.41 L1343.12 156.38 L1342.75 164.1 L1335.51 172.07 L1325.43 180.61 L1312.05 179.1 L22.87 181.28 L18.97 180.97 L6.66 172.32 L3.16 169.57 L2.47 155.8 L-1.88 31.14 L1.95 18.14 L6.31 9.35 L18.87 0.71 L30.81 -1.8" stroke="none" stroke-width="0" fill="#82c91e"></path><path d="M32 0 M32 0 C520.96 0.34, 1008.32 -0.28, 1313.35 0 M32 0 C462.51 -4.22, 893.52 -4.15, 1313.35 0 M1313.35 0 C1336.13 -1.73, 1344.15 8.87, 1345.35 32 M1313.35 0 C1333.69 -2.23, 1343.12 12.15, 1345.35 32 M1345.35 32 C1343.93 64.93, 1347.08 100.2, 1345.35 149.03 M1345.35 32 C1344.13 73.41, 1345.32 115.4, 1345.35 149.03 M1345.35 149.03 C1343.68 168.71, 1334.85 179.89, 1313.35 181.03 M1345.35 149.03 C1345.64 169.46, 1333.96 180.54, 1313.35 181.03 M1313.35 181.03 C857.25 178.06, 400.97 178.2, 32 181.03 M1313.35 181.03 C838.96 178.46, 364.33 178.49, 32 181.03 M32 181.03 C11.72 182.22, -0.62 170.88, 0 149.03 M32 181.03 C10.58 180.48, 1.64 168.4, 0 149.03 M0 149.03 C-1.18 114.99, -2.44 84.54, 0 32 M0 149.03 C-0.48 114.99, -1.23 82.88, 0 32 M0 32 C1.25 8.75, 11.96 0.09, 32 0 M0 32 C0.6 12.11, 11.07 0.99, 32 0" stroke="#000000" stroke-width="2" fill="none"></path></g><g stroke-linecap="round" transform="translate(21.81587336638131 717.6790117510089) rotate(0 736.8469420798147 88.11428833007808)"><path d="M33.51 1.35 L1448.57 0.38 L1455.27 2.7 L1465.07 8.25 L1470.77 13.28 L1474.51 25.05 L1472.1 153.7 L1470.33 160.09 L1467.27 167.8 L1456.09 173.42 L1441.86 177.99 L25.72 175.16 L17.88 173.89 L7.34 167.62 L2.97 165 L-0.9 151.51 L0.33 33.5 L0.4 17.22 L6.43 8.19 L17.77 2.24 L32.31 0.05" stroke="none" stroke-width="0" fill="#82c91e"></path><path d="M32 0 M32 0 C406.26 4.91, 780.2 4.69, 1441.69 0 M32 0 C507.26 3.94, 982.21 3.88, 1441.69 0 M1441.69 0 C1462.82 -0.47, 1474.81 9.4, 1473.69 32 M1441.69 0 C1464 -0.1, 1471.87 11.79, 1473.69 32 M1473.69 32 C1472.89 73.78, 1472.54 115.09, 1473.69 144.23 M1473.69 32 C1473.6 71.98, 1474 110.77, 1473.69 144.23 M1473.69 144.23 C1471.78 166.99, 1464.8 177.73, 1441.69 176.23 M1473.69 144.23 C1475.3 167.39, 1463.29 175.7, 1441.69 176.23 M1441.69 176.23 C1105.46 175.64, 770.24 174.46, 32 176.23 M1441.69 176.23 C1023.28 171.87, 604.41 171.92, 32 176.23 M32 176.23 C8.86 175.57, -0.77 165.11, 0 144.23 M32 176.23 C12.48 176.85, 0.79 166.47, 0 144.23 M0 144.23 C1.06 107.92, -1.36 75.32, 0 32 M0 144.23 C0.77 105.62, -1.05 65.84, 0 32 M0 32 C0.94 11.33, 10.65 -1.92, 32 0 M0 32 C-1.1 12.23, 10.68 0.31, 32 0" stroke="#000000" stroke-width="2" fill="none"></path></g><g stroke-linecap="round" transform="translate(146.76830809441026 502.6257386328741) rotate(0 675.5 100)"><path d="M31.88 -0.42 L1327.2 -0.12 L1333.25 3.58 L1343.78 9.32 L1347.05 11.41 L1352.47 23.14 L1352.36 177.08 L1348.57 182.39 L1342.19 192.17 L1334.76 199.22 L1318.43 199.88 L24.16 198.84 L17.39 196.47 L9.27 190.6 L4.28 187.83 L2 173.9 L-0.78 30.43 L2.19 17.77 L8.24 8.31 L18.05 1.31 L31.26 -1.85" stroke="none" stroke-width="0" fill="#82c91e"></path><path d="M32 0 M32 0 C463.68 -1.31, 896.94 -2.17, 1319 0 M32 0 C498.41 -2.45, 965.03 -2.19, 1319 0 M1319 0 C1339.07 0.85, 1350.92 9.08, 1351 32 M1319 0 C1341.45 1.75, 1349.71 11.81, 1351 32 M1351 32 C1349.33 72.74, 1349.92 111.01, 1351 168 M1351 32 C1350.52 76.45, 1352 123.71, 1351 168 M1351 168 C1352.5 190.73, 1341.93 200.23, 1319 200 M1351 168 C1350.47 187.91, 1338.4 199.45, 1319 200 M1319 200 C1049.25 197.17, 780.41 196.63, 32 200 M1319 200 C910.96 195.56, 503.41 195.77, 32 200 M32 200 C10.21 201.58, 0.54 190.02, 0 168 M32 200 C11.58 200.16, -0.06 187.6, 0 168 M0 168 C1.23 121.21, 1.64 70.88, 0 32 M0 168 C-0.74 114.5, -0.6 60.06, 0 32 M0 32 C-1.92 9.71, 12.03 0.02, 32 0 M0 32 C0.31 12.86, 10.48 1.86, 32 0" stroke="#000000" stroke-width="2" fill="none"></path></g><g transform="translate(685.8643774303478 580.1257386328741) rotate(0 136.4039306640625 22.5)"><text x="136.4039306640625" y="0" font-family="Virgil, Segoe UI Emoji" font-size="36px" fill="#000000" text-anchor="middle" style="white-space: pre;" direction="ltr" dominant-baseline="text-before-edge">Work experience</text></g><g stroke-linecap="round" transform="translate(26.417689998081414 915.0366722888582) rotate(0 738.4373848910584 98.626612145005)"><path d="M33.38 -1.5 L1453.55 0.85 L1459.87 1.4 L1469.58 6.42 L1471.18 11.4 L1475.66 23.68 L1476.8 171.43 L1476.46 179.27 L1468.94 190.54 L1460.74 193.45 L1443.41 197.48 L26.48 197.65 L19.26 197.13 L9.39 188.47 L4.71 184.27 L-0.36 170.89 L0 31.35 L1.86 16.56 L7.81 6.48 L17.79 1.3 L31.42 -1.09" stroke="none" stroke-width="0" fill="#ced4da"></path><path d="M32 0 M32 0 C510.26 -3.3, 986.66 -3.33, 1444.87 0 M32 0 C474.89 5.46, 916.71 5.56, 1444.87 0 M1444.87 0 C1466.4 1.61, 1476.17 10, 1476.87 32 M1444.87 0 C1466.51 -1.81, 1477.59 10.24, 1476.87 32 M1476.87 32 C1477.88 68.38, 1478.22 103.04, 1476.87 165.25 M1476.87 32 C1475.32 60.68, 1475.04 88.59, 1476.87 165.25 M1476.87 165.25 C1477.23 186.78, 1466.64 198.3, 1444.87 197.25 M1476.87 165.25 C1477.76 187.46, 1465.16 199.14, 1444.87 197.25 M1444.87 197.25 C1056.2 201.29, 668.66 200.82, 32 197.25 M1444.87 197.25 C1096.7 193.77, 748.95 193.98, 32 197.25 M32 197.25 C11.02 198.73, -1.5 186.63, 0 165.25 M32 197.25 C9.84 196.75, 1.1 187.26, 0 165.25 M0 165.25 C0.76 131.58, -0.78 97.53, 0 32 M0 165.25 C-0.47 131.9, -1.47 97.98, 0 32 M0 32 C-0.78 11.13, 10.27 1.77, 32 0 M0 32 C-1.82 10.99, 11.58 1.74, 32 0" stroke="#000000" stroke-width="2" fill="none"></path></g><g stroke-linecap="round" transform="translate(26.254690262123404 1135.2601169056284) rotate(0 735 42.5)"><path d="M22 -1.48 L1447.12 1.32 L1461.1 1.55 L1469.67 11.55 L1471.22 19.48 L1471.88 62.62 L1469.96 73.8 L1465.82 79.77 L1457.29 81.93 L1449.2 85.06 L22.6 86.81 L13.09 85.24 L3.75 79.02 L-0.6 72.28 L-0.06 65.44 L1.75 22.87 L1.22 12.58 L8.54 4.18 L20.17 -1.17" stroke="none" stroke-width="0" fill="#40c057"></path><path d="M21.25 0 M21.25 0 C535.54 5.78, 1050.44 5.68, 1448.75 0 M21.25 0 C320.77 -0.44, 619.57 -0.42, 1448.75 0 M1448.75 0 C1463.95 -0.78, 1471.11 5.53, 1470 21.25 M1448.75 0 C1462.41 -0.69, 1469.23 8.92, 1470 21.25 M1470 21.25 C1468.5 31.93, 1469.58 44.62, 1470 63.75 M1470 21.25 C1470.49 35.36, 1470.77 51.7, 1470 63.75 M1470 63.75 C1470.2 78.7, 1464.89 85.29, 1448.75 85 M1470 63.75 C1470.57 76.88, 1462.66 84.33, 1448.75 85 M1448.75 85 C961 80.59, 472.57 79.92, 21.25 85 M1448.75 85 C884.07 83.62, 320.06 83.51, 21.25 85 M21.25 85 C5.16 85.22, -1.53 79.36, 0 63.75 M21.25 85 C6.61 85.61, -1.33 76.84, 0 63.75 M0 63.75 C-1.86 49.04, -0.22 31.53, 0 21.25 M0 63.75 C-0.55 47.71, 0.21 31.42, 0 21.25 M0 21.25 C1.13 7.73, 5.1 -0.4, 21.25 0 M0 21.25 C-1.56 8.83, 7.28 -2.24, 21.25 0" stroke="#000000" stroke-width="2" fill="none"></path></g><g transform="translate(703.2227078402484 1155.2601169056284) rotate(0 58.031982421875 22.5)"><text x="58.031982421875" y="0" font-family="Virgil, Segoe UI Emoji" font-size="36px" fill="#000000" text-anchor="middle" style="white-space: pre;" direction="ltr" dominant-baseline="text-before-edge">Footer</text></g><g transform="translate(559.2229847187457 135.5851964119364) rotate(0 43.163978576660156 22.5)"><text x="43.163978576660156" y="0" font-family="Virgil, Segoe UI Emoji" font-size="36px" fill="#000000" text-anchor="middle" style="white-space: pre;" direction="ltr" dominant-baseline="text-before-edge">Title</text></g><g transform="translate(1252.8495333806038 172.09098127540665) rotate(0 98.49597930908203 22.5)"><text x="98.49597930908203" y="0" font-family="Virgil, Segoe UI Emoji" font-size="36px" fill="#000000" text-anchor="middle" style="white-space: pre;" direction="ltr" dominant-baseline="text-before-edge">Background</text></g><g transform="translate(704.4120752441377 372.84837128506535) rotate(0 108.08997344970703 22.5)"><text x="108.08997344970703" y="0" font-family="Virgil, Segoe UI Emoji" font-size="36px" fill="#000000" text-anchor="middle" style="white-space: pre;" direction="ltr" dominant-baseline="text-before-edge">Introduction</text></g><g transform="translate(700.235906327573 789.2827189689366) rotate(0 42.89397430419922 22.5)"><text x="42.89397430419922" y="0" font-family="Virgil, Segoe UI Emoji" font-size="36px" fill="#000000" text-anchor="middle" style="white-space: pre;" direction="ltr" dominant-baseline="text-before-edge">Skills</text></g><g transform="translate(710.8432530194232 997.8363464900488) rotate(0 39.43798828125 22.5)"><text x="39.43798828125" y="0" font-family="Virgil, Segoe UI Emoji" font-size="36px" fill="#000000" text-anchor="middle" style="white-space: pre;" direction="ltr" dominant-baseline="text-before-edge">Form</text></g><g stroke-linecap="round" transform="translate(738.1015227200924 134.8604696770467) rotate(0 36.1708231430199 17.674597236724196)"><path d="M47.8 5.12 L67.39 15.22 L70.28 19.21 L36.46 35.78 L8.78 23.41 L0.42 16.69 L36.93 1.36 L46.59 4.22" stroke="none" stroke-width="0" fill="#fa5252"></path><path d="M46.25 4.5 M46.25 4.5 C51.6 8.02, 54.8 8.07, 63.09 13.5 M46.25 4.5 C52.8 8.65, 59.72 10.45, 63.09 13.5 M63.09 13.5 C74.29 19.22, 72.23 16.24, 63.09 22.5 M63.09 13.5 C72.83 19.98, 72.78 16.12, 63.09 22.5 M63.09 22.5 C61.05 22.68, 56 27.89, 46.25 30.85 M63.09 22.5 C59.69 23.89, 54.12 26.65, 46.25 30.85 M46.25 30.85 C37.6 34.15, 35.16 33.93, 27.75 30.85 M46.25 30.85 C35.01 33.36, 38.41 33.95, 27.75 30.85 M27.75 30.85 C21.61 28.59, 13.06 24.17, 9.25 22.5 M27.75 30.85 C23.44 29.51, 18.6 27.42, 9.25 22.5 M9.25 22.5 C1.37 16.24, 0.54 19.55, 9.25 13.5 M9.25 22.5 C-2.18 18.24, 0.64 19.93, 9.25 13.5 M9.25 13.5 C11.27 10.95, 18.77 8.33, 27.75 4.5 M9.25 13.5 C16.38 10.18, 22.45 7.3, 27.75 4.5 M27.75 4.5 C37.81 1.11, 37.45 1.81, 46.25 4.5 M27.75 4.5 C39.09 0.84, 35.02 -2.11, 46.25 4.5" stroke="#000000" stroke-width="2" fill="none"></path></g><g stroke-linecap="round" transform="translate(249.90340845276205 994.016278017189) rotate(0 43.41991363164037 30.654736759575826)"><path d="M53.24 8.17 L83.75 28.24 L82.45 29.34 L77.73 34.98 L50.27 56.29 L44.31 61.35 L38.57 58.98 L5.13 34.18 L2.96 26.72 L39.08 3.99 L44.91 0.47 L53.58 6.02" stroke="none" stroke-width="0" fill="#fa5252"></path><path d="M55 7.75 M55 7.75 C60.72 12.59, 64.23 15.05, 75.84 23.25 M55 7.75 C61.35 12.62, 68.94 18.42, 75.84 23.25 M75.84 23.25 C88.24 30.75, 88.13 32.37, 75.84 38.75 M75.84 23.25 C84.82 31.62, 88.63 28.82, 75.84 38.75 M75.84 38.75 C67.7 44.21, 64.66 46.2, 55 53.56 M75.84 38.75 C70.58 42.42, 64.22 47.66, 55 53.56 M55 53.56 C43.39 62.54, 43.73 62.11, 33 53.56 M55 53.56 C45.28 61.83, 46.08 63.4, 33 53.56 M33 53.56 C24.87 47.02, 18.17 43.12, 11 38.75 M33 53.56 C27.55 51.05, 23.43 46.66, 11 38.75 M11 38.75 C-0.81 32.06, -0.07 30.17, 11 23.25 M11 38.75 C2.22 31.27, 0.89 30.28, 11 23.25 M11 23.25 C18.84 20.96, 24.17 15.5, 33 7.75 M11 23.25 C17.99 18.38, 25.44 13.67, 33 7.75 M33 7.75 C45.09 -1.44, 44.02 -0.5, 55 7.75 M33 7.75 C41.83 0.21, 42.34 -0.1, 55 7.75" stroke="#000000" stroke-width="2" fill="none"></path></g><g stroke-linecap="round" transform="translate(910.5485509074467 786.3866998924536) rotate(0 69.38903271975539 23.21605844903887)"><path d="M85.79 6.68 L132.84 19.64 L133.94 25.62 L120.12 30.78 L69.38 44.52 L19.16 29.39 L5.61 23.73 L12.56 21.1 L67.1 3.59 L75.17 2.51 L85.77 4.16" stroke="none" stroke-width="0" fill="#fa5252"></path><path d="M87.5 6 M87.5 6 C95.83 7.24, 103.61 12.42, 121.28 18 M87.5 6 C93.55 8.2, 101.69 10.99, 121.28 18 M121.28 18 C137.95 25.93, 139.01 24.78, 121.28 30 M121.28 18 C138.06 23.5, 138.26 23.73, 121.28 30 M121.28 30 C109.27 34.82, 97.17 39.21, 87.5 40.43 M121.28 30 C112.75 33.43, 101.74 35.8, 87.5 40.43 M87.5 40.43 C69.5 44.55, 70.18 44.99, 52.5 40.43 M87.5 40.43 C69.9 47.56, 69.88 44.49, 52.5 40.43 M52.5 40.43 C41.9 37.13, 35.23 37.14, 17.5 30 M52.5 40.43 C37.72 35.88, 25.45 32.99, 17.5 30 M17.5 30 C0.67 25.88, 1.62 23.88, 17.5 18 M17.5 30 C0.88 25.9, 0.26 23.88, 17.5 18 M17.5 18 C23.71 13.91, 33.54 14.55, 52.5 6 M17.5 18 C27.41 14.79, 36.02 11.16, 52.5 6 M52.5 6 C70.44 -1.8, 69.96 -1.93, 87.5 6 M52.5 6 C68.31 0.77, 69.91 0.91, 87.5 6" stroke="#000000" stroke-width="2" fill="none"></path></g><g stroke-linecap="round" transform="translate(1637.4679963590847 954.93367686852) rotate(0 24.843004774564065 19.70302317062726)"><path d="M32.97 6.09 L46.68 20.02 L28.68 34.16 L23.98 36.47 L1.48 20.98 L23.7 -0.2 L25.56 1.08 L33.07 3.77" stroke="none" stroke-width="0" fill="#fa5252"></path><path d="M31.25 5 M31.25 5 C36.04 7.15, 39.04 8.74, 43.44 15 M31.25 5 C34.4 7.97, 37.58 9.48, 43.44 15 M43.44 15 C50.45 21.65, 49.91 19.9, 43.44 25 M43.44 15 C47.68 18.12, 51.3 18.46, 43.44 25 M43.44 25 C40.04 27, 38.76 30.61, 31.25 34.41 M43.44 25 C39.75 27.25, 35.7 30.19, 31.25 34.41 M31.25 34.41 C23.53 40.08, 24.92 40.19, 18.75 34.41 M31.25 34.41 C25.06 40.8, 26.4 41.16, 18.75 34.41 M18.75 34.41 C13.9 30.93, 9.53 28.18, 6.25 25 M18.75 34.41 C16.43 32.79, 13.61 30.98, 6.25 25 M6.25 25 C-1.82 19.42, -0.12 21.41, 6.25 15 M6.25 25 C-0.96 18.87, 0.88 17.84, 6.25 15 M6.25 15 C8.57 12.29, 11.19 11.4, 18.75 5 M6.25 15 C10.97 12.57, 14.13 8.17, 18.75 5 M18.75 5 C25.06 -0.44, 24.6 -1.77, 31.25 5 M18.75 5 C27.06 0.61, 23.27 1.04, 31.25 5" stroke="#000000" stroke-width="2" fill="none"></path></g><g transform="translate(1725.593690201377 958.484823803439) rotate(0 171.77392578125 22.5)"><text x="171.77392578125" y="0" font-family="Virgil, Segoe UI Emoji" font-size="36px" fill="#000000" text-anchor="middle" style="white-space: pre;" direction="ltr" dominant-baseline="text-before-edge">design modifications</text></g><g stroke-linecap="round" transform="translate(1589.4954011547102 46.879481038409494) rotate(0 39.406111698835616 34.26619545247985)"><path d="M51.06 6.93 L74.16 32.44 L74.9 36.35 L69.48 45.4 L47.64 64.1 L38.64 66.63 L35.19 63.18 L8.91 43.69 L0.97 36.02 L6.41 30.42 L37.59 2.86 L40 3.08 L51.16 8.75" stroke="none" stroke-width="0" fill="#82c91e"></path><path d="M50 8.75 M50 8.75 C54.28 12.89, 60.91 18.69, 68.81 26.25 M50 8.75 C54.94 12.58, 59.15 16.93, 68.81 26.25 M68.81 26.25 C79.68 35.17, 79.02 35.72, 68.81 43.75 M68.81 26.25 C77.05 34.78, 76.69 36.68, 68.81 43.75 M68.81 43.75 C59.98 47.96, 56.47 54.27, 50 59.78 M68.81 43.75 C62 47.98, 57.13 53.55, 50 59.78 M50 59.78 C39.08 70.24, 40.41 68.66, 30 59.78 M50 59.78 C41.32 67.35, 41.53 66.78, 30 59.78 M30 59.78 C24.13 53.26, 17.85 50.8, 10 43.75 M30 59.78 C22.07 54.6, 14.85 48.11, 10 43.75 M10 43.75 C-1.72 36.39, -0.24 36.26, 10 26.25 M10 43.75 C-1.07 34.36, 0.47 35.8, 10 26.25 M10 26.25 C18.67 21.16, 26.54 13.9, 30 8.75 M10 26.25 C18.35 19.53, 25.11 11.99, 30 8.75 M30 8.75 C39.08 1.72, 41.77 1.72, 50 8.75 M30 8.75 C37.9 -0.77, 41.58 -2.1, 50 8.75" stroke="#000000" stroke-width="2" fill="none"></path></g><g stroke-linecap="round" transform="translate(1591.2085540691394 165.09783247431153) rotate(0 41.11946068600821 38.54946988403975)"><path d="M50.84 8.02 L79.57 33.57 L79.98 37.7 L78.51 41.53 L50.6 68.14 L41.03 73.74 L39.45 73.24 L10.63 49.9 L1.6 40.33 L5.53 33.24 L41.23 4.13 L45 1.67 L53.95 11.47" stroke="none" stroke-width="0" fill="#ced4da"></path><path d="M52.5 9.75 M52.5 9.75 C57.54 17.75, 64.27 23.2, 71.74 29.25 M52.5 9.75 C57.39 13.48, 60.59 18.33, 71.74 29.25 M71.74 29.25 C82.93 40.85, 81.31 38.5, 71.74 48.75 M71.74 29.25 C83.09 40.98, 83.12 40.53, 71.74 48.75 M71.74 48.75 C65.42 56.44, 55.45 62.59, 52.5 67.35 M71.74 48.75 C67.87 52.74, 61.78 59.06, 52.5 67.35 M52.5 67.35 C40.17 75.47, 42.07 77.37, 31.5 67.35 M52.5 67.35 C44.2 75.39, 40.18 75.97, 31.5 67.35 M31.5 67.35 C24.5 64.55, 21.82 57.77, 10.5 48.75 M31.5 67.35 C25.32 61.28, 19.95 57.36, 10.5 48.75 M10.5 48.75 C-0.64 37.32, 1.87 40.9, 10.5 29.25 M10.5 48.75 C0.91 38.27, 0.91 39.51, 10.5 29.25 M10.5 29.25 C15.24 24.2, 20.34 19.64, 31.5 9.75 M10.5 29.25 C15.79 24.52, 21.57 17.61, 31.5 9.75 M31.5 9.75 C41.03 -0.77, 40.27 -0.59, 52.5 9.75 M31.5 9.75 C43.85 0.44, 42.03 0.42, 52.5 9.75" stroke="#000000" stroke-width="2" fill="none"></path></g><g stroke-linecap="round" transform="translate(1594.635382758647 285.02954923678146) rotate(0 41.11939532842723 35.97947908207135)"><path d="M51.86 7.32 L79.52 34.24 L80.4 35.36 L78.44 40.1 L50.69 62.58 L43.69 70.01 L34.2 66.91 L9.24 44.55 L1.71 35.29 L5.78 31.21 L38.62 0.9 L43.04 1.9 L50.77 8.41" stroke="none" stroke-width="0" fill="#fa5252"></path><path d="M52.5 9 M52.5 9 C60.22 14.88, 65.59 24.2, 71.74 27 M52.5 9 C59.77 14.51, 65.92 20.05, 71.74 27 M71.74 27 C82.24 37.76, 81.09 36.66, 71.74 45 M71.74 27 C82.48 37.38, 81.23 35.56, 71.74 45 M71.74 45 C69.15 49.71, 62.17 54.72, 52.5 62.96 M71.74 45 C66.02 50.92, 60.88 56.02, 52.5 62.96 M52.5 62.96 C41.91 72.73, 40.02 70.17, 31.5 62.96 M52.5 62.96 C39.83 69.68, 42.33 69.88, 31.5 62.96 M31.5 62.96 C26.23 59.02, 20.22 51.54, 10.5 45 M31.5 62.96 C23.6 55.95, 15.53 49.44, 10.5 45 M10.5 45 C-0.77 37.28, 0.46 35.82, 10.5 27 M10.5 45 C-2.2 33.87, -0.51 34.47, 10.5 27 M10.5 27 C18.27 21.83, 23.4 14.33, 31.5 9 M10.5 27 C18.47 21.42, 25.63 14.97, 31.5 9 M31.5 9 C41.14 -0.3, 42.76 -0.93, 52.5 9 M31.5 9 C41.49 -0.18, 40.43 1.81, 52.5 9" stroke="#000000" stroke-width="2" fill="none"></path></g><g stroke-linecap="round"><g transform="translate(1843.0652997891254 70.86576230120147) rotate(0 -65.09674364111561 -0.32365661524238476)"><path d="M0.85 0.33 C-20.85 0, -108.65 -0.79, -130.73 -0.98 M-0.16 -0.54 C-21.87 -0.23, -109.05 -0.06, -131.05 0.04" stroke="#000000" stroke-width="2" fill="none"></path></g><g transform="translate(1843.0652997891254 70.86576230120147) rotate(0 -65.09674364111561 -0.32365661524238476)"><path d="M-102.34 -8.32 C-111.69 -6.87, -118.63 -6.11, -129.66 1.8 M-102.87 -10.74 C-109.77 -7.78, -118.31 -5.78, -131.07 -0.48" stroke="#000000" stroke-width="2" fill="none"></path></g><g transform="translate(1843.0652997891254 70.86576230120147) rotate(0 -65.09674364111561 -0.32365661524238476)"><path d="M-102.27 12.2 C-111.81 8.37, -118.77 3.83, -129.66 1.8 M-102.8 9.78 C-109.67 7.05, -118.23 3.36, -131.07 -0.48" stroke="#000000" stroke-width="2" fill="none"></path></g></g><mask></mask><g stroke-linecap="round"><g transform="translate(1849.4810007166427 197.1177100794605) rotate(0 -65.76524936421947 0.15818704532455286)"><path d="M-0.9 -0.15 C-22.67 -0.21, -109.72 -0.03, -131.59 0.03 M0.83 -1.27 C-20.98 -1.16, -110.06 1.11, -132.36 1.59" stroke="#000000" stroke-width="2" fill="none"></path></g><g transform="translate(1849.4810007166427 197.1177100794605) rotate(0 -65.76524936421947 0.15818704532455286)"><path d="M-104.67 -8.77 C-110.46 -7.45, -116.31 -4.64, -130.62 3.42 M-104.68 -10.24 C-115.26 -5.31, -126.81 -0.31, -132.71 2.28" stroke="#000000" stroke-width="2" fill="none"></path></g><g transform="translate(1849.4810007166427 197.1177100794605) rotate(0 -65.76524936421947 0.15818704532455286)"><path d="M-104.19 11.74 C-110.15 8.56, -116.1 6.86, -130.62 3.42 M-104.2 10.27 C-115.12 7.16, -126.87 4.13, -132.71 2.28" stroke="#000000" stroke-width="2" fill="none"></path></g></g><mask></mask><g stroke-linecap="round"><g transform="translate(1847.7678478022137 317.0494268419304) rotate(0 -66.25921560711402 0.15244202356785763)"><path d="M0.03 -0.18 C-21.89 -0.23, -109.9 -0.15, -131.72 0.06 M-1.41 -1.33 C-23.46 -1.19, -110.94 1.52, -132.55 1.63" stroke="#000000" stroke-width="2" fill="none"></path></g><g transform="translate(1847.7678478022137 317.0494268419304) rotate(0 -66.25921560711402 0.15244202356785763)"><path d="M-104.88 -8.83 C-112.48 -4.32, -118.81 -1.12, -130.99 0.56 M-104.68 -9.76 C-111.73 -6.56, -119.32 -3.42, -133.17 2.43" stroke="#000000" stroke-width="2" fill="none"></path></g><g transform="translate(1847.7678478022137 317.0494268419304) rotate(0 -66.25921560711402 0.15244202356785763)"><path d="M-104.47 11.69 C-112.25 10.29, -118.69 7.6, -130.99 0.56 M-104.28 10.75 C-111.25 8.33, -118.95 5.84, -133.17 2.43" stroke="#000000" stroke-width="2" fill="none"></path></g></g><mask></mask><g transform="translate(1876.7361504956637 52.159280852330426) rotate(0 93.11396789550781 22.5)"><text x="93.11396789550781" y="0" font-family="Virgil, Segoe UI Emoji" font-size="36px" fill="#000000" text-anchor="middle" style="white-space: pre;" direction="ltr" dominant-baseline="text-before-edge">Must have</text></g><g transform="translate(1872.537544491229 173.66441401622205) rotate(0 104.16596984863281 22.5)"><text x="104.16596984863281" y="0" font-family="Virgil, Segoe UI Emoji" font-size="36px" fill="#000000" text-anchor="middle" style="white-space: pre;" direction="ltr" dominant-baseline="text-before-edge">Should have</text></g><g transform="translate(1880.781286356803 293.5960980999015) rotate(0 95.92196655273438 22.5)"><text x="95.92196655273438" y="0" font-family="Virgil, Segoe UI Emoji" font-size="36px" fill="#000000" text-anchor="middle" style="white-space: pre;" direction="ltr" dominant-baseline="text-before-edge">Could have</text></g><g stroke-linecap="round" transform="translate(14.830185731175334 299.31153324823197) rotate(0 65 208)"><path d="M33.6 0.06 L97.3 -1.39 L113.17 0.87 L123.67 9.93 L124.09 14.39 L131.41 22.51 L130.56 384.94 L128.78 392.38 L126.89 405.27 L119.12 413 L106.45 413.54 L23.86 417.21 L16.73 415.3 L7.54 408.28 L4.3 402.5 L0.28 390.37 L1.35 25.03 L0.29 18.05 L8.12 7.15 L17.89 3.31 L31.49 -1.96" stroke="none" stroke-width="0" fill="#82c91e"></path><path d="M32 0 M32 0 C58.63 1.09, 85.14 0.42, 98 0 M32 0 C48.51 -1.23, 64.48 -1.46, 98 0 M98 0 C120.12 -1.29, 130.12 10.49, 130 32 M98 0 C117.32 1.63, 128.3 9.86, 130 32 M130 32 C128.52 109.9, 130.44 188.08, 130 384 M130 32 C128.6 108.54, 128.72 184.56, 130 384 M130 384 C128.58 406.25, 119.67 416.94, 98 416 M130 384 C129.39 407.28, 120.62 416, 98 416 M98 416 C78.1 415.36, 63.79 417.55, 32 416 M98 416 C74.03 416.53, 47.8 415.09, 32 416 M32 416 C11.63 414.78, 0.38 407.12, 0 384 M32 416 C9.44 413.94, 2.16 405.96, 0 384 M0 384 C-2.56 272.19, -1.49 156.92, 0 32 M0 384 C-1.77 248.66, -1.51 113.25, 0 32 M0 32 C-0.08 10.2, 11.05 0, 32 0 M0 32 C0.41 9, 12.41 0.04, 32 0" stroke="#000000" stroke-width="2" fill="none"></path></g><g transform="translate(37.56620105099955 484.81153324823197) rotate(0 42.26398468017578 22.5)"><text x="42.26398468017578" y="0" font-family="Virgil, Segoe UI Emoji" font-size="36px" fill="#000000" text-anchor="middle" style="white-space: pre;" direction="ltr" dominant-baseline="text-before-edge">Menu</text></g><g stroke-linecap="round" transform="translate(458.93800786168936 787.7723766398241) rotate(0 67.91630437619108 25.46861414107167)"><path d="M85.77 6.61 L123.82 22.61 L133.27 26.02 L119.21 34.45 L75.13 48.66 L66.16 50.95 L62.56 47.85 L17.02 33.58 L4.66 26.19 L9.6 20.55 L64.7 0.97 L70.97 3.26 L85.91 4.6" stroke="none" stroke-width="0" fill="#fa5252"></path><path d="M85 6.5 M85 6.5 C98.02 10.74, 106.48 14.94, 118.83 19.5 M85 6.5 C92.84 10.55, 101.52 12.97, 118.83 19.5 M118.83 19.5 C137.44 26.76, 134.15 26.43, 118.83 32.5 M118.83 19.5 C136.29 26.37, 135.96 24.5, 118.83 32.5 M118.83 32.5 C108 35.96, 92.98 42.97, 85 44.44 M118.83 32.5 C106.72 36.59, 95.5 40.74, 85 44.44 M85 44.44 C66.2 51.18, 68.05 50.95, 51 44.44 M85 44.44 C66.87 49.36, 68.99 49.32, 51 44.44 M51 44.44 C43.26 43.08, 34.98 39.9, 17 32.5 M51 44.44 C41.8 41.53, 34.83 37.96, 17 32.5 M17 32.5 C1.17 25.61, -1.93 25.31, 17 19.5 M17 32.5 C2.01 26.56, -2.12 23.9, 17 19.5 M17 19.5 C26 14.78, 32.91 14.42, 51 6.5 M17 19.5 C27.84 15.65, 39.07 11.57, 51 6.5 M51 6.5 C68.37 0.13, 69.13 -1.32, 85 6.5 M51 6.5 C67.77 -1.42, 67.1 -2, 85 6.5" stroke="#000000" stroke-width="2" fill="none"></path></g><g stroke-linecap="round" transform="translate(54.836009777360005 339.5248066189847) rotate(0 35.656066274503814 27.166528227479887)"><path d="M44.74 6.81 L68.91 24.71 L68.53 28.6 L63.99 34.02 L39.94 51 L35.72 52.03 L32.38 49.4 L1.1 30.85 L3.1 24.81 L32.67 4.15 L36.42 3.14 L45.49 6.66" stroke="none" stroke-width="0" fill="#fa5252"></path><path d="M45 7 M45 7 C49.11 7.89, 51.34 12.7, 62.31 21 M45 7 C49.11 10.82, 53.03 14.42, 62.31 21 M62.31 21 C72.43 29.7, 71.31 28.45, 62.31 35 M62.31 21 C69.63 30.1, 72.26 27.86, 62.31 35 M62.31 35 C60.58 35.93, 55.35 41.26, 45 47.33 M62.31 35 C57.56 38.05, 53.71 41.43, 45 47.33 M45 47.33 C35.26 54.33, 35.14 54.33, 27 47.33 M45 47.33 C34.85 53.72, 37.26 53.26, 27 47.33 M27 47.33 C19.4 40.84, 13.01 38.86, 9 35 M27 47.33 C22.76 44.33, 18.39 40.03, 9 35 M9 35 C-0.16 27.49, -0.3 28.52, 9 21 M9 35 C-0.95 28.17, 1.13 28.39, 9 21 M9 21 C14.1 18.52, 19.59 15.49, 27 7 M9 21 C14.84 17, 18.2 12.78, 27 7 M27 7 C34.91 -0.84, 35.26 0.01, 45 7 M27 7 C37.84 0.5, 37.63 0.47, 45 7" stroke="#000000" stroke-width="2" fill="none"></path></g></svg>