<svg version="1.1" xmlns="http://www.w3.org/2000/svg" viewBox="0 0 1142.069526913104 1247.9999389648438" width="1142.069526913104" height="1247.9999389648438" filter="invert(93%) hue-rotate(180deg)">
  <!-- svg-source:excalidraw -->
  
  <defs>
    <style class="style-fonts">
      @font-face {
        font-family: "Virgil";
        src: url("https://excalidraw.com/Virgil.woff2");
      }
      @font-face {
        font-family: "Cascadia";
        src: url("https://excalidraw.com/Cascadia.woff2");
      }
    </style>
  </defs>
  <rect x="0" y="0" width="1142.069526913104" height="1247.9999389648438" fill="#ffffff"></rect><g stroke-linecap="round" transform="translate(10 10) rotate(0 276.2387906568546 613.9999694824219)"><path d="M32 0 M32 0 C211.17 2.45, 390.67 2.33, 520.48 0 M32 0 C137.67 0.37, 243.9 0.57, 520.48 0 M520.48 0 C543.62 -0.25, 550.64 10.01, 552.48 32 M520.48 0 C539.8 0.37, 551.12 10.7, 552.48 32 M552.48 32 C551.01 456.9, 550.46 880.89, 552.48 1196 M552.48 32 C553.9 272.71, 553.93 512.95, 552.48 1196 M552.48 1196 C553.3 1218.2, 542.58 1226.73, 520.48 1228 M552.48 1196 C554.26 1219.52, 541.21 1226.79, 520.48 1228 M520.48 1228 C324.72 1226.9, 129.25 1227.27, 32 1228 M520.48 1228 C416.15 1229.08, 311.47 1229.49, 32 1228 M32 1228 C9.17 1226.65, 1.8 1219.03, 0 1196 M32 1228 C10.17 1227.67, -0.99 1218.45, 0 1196 M0 1196 C-0.86 757.61, -0.41 319.93, 0 32 M0 1196 C-1.58 764.09, -1.37 332.68, 0 32 M0 32 C-1.87 9.71, 9.39 0.77, 32 0 M0 32 C-1.81 8.78, 9.65 0.34, 32 0" stroke="#000000" stroke-width="2" fill="none"></path></g><g stroke-linecap="round" transform="translate(21.653122311334982 13.279888059685618) rotate(0 267.0290143236922 108.20000457763672)"><path d="M33.54 1.6 L502.06 1.73 L516.53 2.52 L524.3 7.52 L529.31 13.89 L531.67 22.93 L534.59 185.4 L531.96 196.52 L527.78 205.79 L519.7 211.91 L514.51 214.73 L503.66 215.66 L33.15 214.76 L19.31 215.17 L12.95 211.67 L3.05 203.11 L1.26 189.99 L0.84 30.99 L2.73 18.61 L9.97 6.26 L19.27 2.36 L33.96 0.94" stroke="none" stroke-width="0" fill="#82c91e"></path><path d="M32 0 M32 0 C209.08 0.48, 385.76 1.81, 502.06 0 M32 0 C194.59 0.13, 357.1 0.78, 502.06 0 M502.06 0 C525.19 1.17, 535.57 11.01, 534.06 32 M502.06 0 C522.52 0.91, 532.2 9.79, 534.06 32 M534.06 32 C533.68 70.58, 533.11 108.37, 534.06 184.4 M534.06 32 C532.07 80.72, 533.38 131.67, 534.06 184.4 M534.06 184.4 C535.04 206.41, 525.28 214.98, 502.06 216.4 M534.06 184.4 C532.67 204.37, 521.82 217.9, 502.06 216.4 M502.06 216.4 C372.5 214.92, 244.57 215.03, 32 216.4 M502.06 216.4 C316.61 215.11, 130.93 215.26, 32 216.4 M32 216.4 C11.21 216.23, 0.02 205.49, 0 184.4 M32 216.4 C8.37 217.32, 0.54 204.12, 0 184.4 M0 184.4 C1.01 146.16, -0.51 109.25, 0 32 M0 184.4 C-0.14 139.74, -0.09 94.28, 0 32 M0 32 C1.62 11.38, 9.91 0.53, 32 0 M0 32 C1.01 10.07, 9.59 1.63, 32 0" stroke="#000000" stroke-width="2" fill="none"></path></g><g stroke-linecap="round" transform="translate(31.739826474712117 41.679889585564524) rotate(0 29 25.5)"><path d="M12.75 0 M12.75 0 C22.38 1.33, 33.85 -0.6, 45.25 0 M12.75 0 C26.11 -0.85, 38.41 -0.65, 45.25 0 M45.25 0 C52.55 -0.87, 59.91 5.21, 58 12.75 M45.25 0 C53.96 -1.8, 56.83 3.31, 58 12.75 M58 12.75 C57.69 20.79, 57.98 23.23, 58 38.25 M58 12.75 C57.07 20.76, 57.62 26.02, 58 38.25 M58 38.25 C56.13 46.59, 55.21 49.4, 45.25 51 M58 38.25 C58.63 48.29, 51.99 50.8, 45.25 51 M45.25 51 C36.66 50.93, 29.83 50.63, 12.75 51 M45.25 51 C35.59 51.33, 24.18 51.99, 12.75 51 M12.75 51 C5.25 50.11, 0.35 44.79, 0 38.25 M12.75 51 C5.74 49.37, 1.29 45.59, 0 38.25 M0 38.25 C0.08 32.87, -0.68 24.03, 0 12.75 M0 38.25 C0.43 31.79, 0.39 26.2, 0 12.75 M0 12.75 C-0.34 3.08, 4.17 -0.06, 12.75 0 M0 12.75 C-1.91 3.02, 3 0.68, 12.75 0" stroke="#000000" stroke-width="2" fill="none"></path></g><g stroke-linecap="round"><g transform="translate(39.73982647471212 54.679889585564524) rotate(0 18.857273297468225 0.4335761383874228)"><path d="M0.23 0.76 C6.43 0.59, 30.32 -0.04, 36.41 -0.06 M-1.11 0.11 C5.57 -0.03, 32.65 0.64, 38.82 0.92" stroke="#000000" stroke-width="2" fill="none"></path></g></g><mask></mask><g stroke-linecap="round"><g transform="translate(40.38255317724395 79.24631344717716) rotate(0 19.7277520658169 -0.9398087982000902)"><path d="M0.81 -0.42 C7.14 -0.39, 31.28 -0.16, 37.32 -0.06 M-0.22 -1.68 C6.56 -1.96, 33.07 -1.72, 39.67 -1.7" stroke="#000000" stroke-width="2" fill="none"></path></g></g><mask></mask><g stroke-linecap="round"><g transform="translate(42.38255317724395 66.24631344717716) rotate(0 18.065146078248517 0.32321613117585457)"><path d="M0.94 -0.97 C7.03 -0.79, 30.52 0.03, 36.16 0.39 M-0.03 1.14 C6.04 1.53, 30.17 1.36, 35.83 1.61" stroke="#000000" stroke-width="2" fill="none"></path></g></g><mask></mask><g stroke-linecap="round" transform="translate(152.2723394499842 93.20005906400456) rotate(0 129.60000610351562 32.400001525878906)"><path d="M16.2 0 M16.2 0 C105.66 0.09, 195.41 2.61, 243 0 M16.2 0 C67.84 -1.44, 120.21 -1.53, 243 0 M243 0 C254.42 0.4, 258.47 4.77, 259.2 16.2 M243 0 C253.36 0.16, 258.81 4.02, 259.2 16.2 M259.2 16.2 C259.84 23.49, 259.42 30.33, 259.2 48.6 M259.2 16.2 C258.98 24.06, 259.52 33.3, 259.2 48.6 M259.2 48.6 C258.21 58.59, 253.37 65.04, 243 64.8 M259.2 48.6 C259.99 60.85, 253.69 66.59, 243 64.8 M243 64.8 C152.54 64.56, 62.33 63.31, 16.2 64.8 M243 64.8 C185.16 66.64, 128.6 66.69, 16.2 64.8 M16.2 64.8 C7.24 65.05, -0.67 58.44, 0 48.6 M16.2 64.8 C6.26 66.77, -1.51 58.57, 0 48.6 M0 48.6 C0.49 39.18, 1.43 29.85, 0 16.2 M0 48.6 C-0.56 36.89, 0.13 26.35, 0 16.2 M0 16.2 C0.15 7.18, 5.16 0.54, 16.2 0 M0 16.2 C1.92 3.5, 6.61 -1.84, 16.2 0" stroke="#000000" stroke-width="2" fill="none"></path></g><g stroke-linecap="round" transform="translate(26.73961728577774 240.08283745751226) rotate(0 261.3842532462601 108.11427307128906)"><path d="M32.94 -0.18 L489.14 1.21 L503.95 1.81 L515.15 8.15 L516.82 13.36 L522.81 24.41 L521.03 184.08 L520.17 199.3 L516.43 202.77 L508.35 213.31 L503.47 212.3 L489.14 216.98 L32.97 218.17 L16.66 213.52 L11.16 212.77 L6.47 203 L-1.38 190.87 L-0.05 32.14 L0.31 19.35 L8.87 6.71 L16.81 0.2 L33.62 1.18" stroke="none" stroke-width="0" fill="#82c91e"></path><path d="M32 0 M32 0 C165.24 -0.56, 299.64 0.92, 490.77 0 M32 0 C204.64 1.53, 377.03 1.44, 490.77 0 M490.77 0 C510.91 -1.8, 521.9 8.73, 522.77 32 M490.77 0 C509.87 1.48, 522.48 11.15, 522.77 32 M522.77 32 C522.98 75.94, 522.66 116.41, 522.77 184.23 M522.77 32 C523.43 67.77, 521.62 103.59, 522.77 184.23 M522.77 184.23 C522.94 204.42, 512.35 215.45, 490.77 216.23 M522.77 184.23 C522.04 205.08, 513.39 214.98, 490.77 216.23 M490.77 216.23 C384.5 218.45, 278.78 218.56, 32 216.23 M490.77 216.23 C377.44 217.13, 264.12 217.22, 32 216.23 M32 216.23 C10.04 216.74, -0.07 205.08, 0 184.23 M32 216.23 C12.31 214.27, -0.39 207.31, 0 184.23 M0 184.23 C-1.32 154.16, -0.08 122.2, 0 32 M0 184.23 C-1.01 147.02, -0.14 107.81, 0 32 M0 32 C1.29 10.76, 11.19 1.25, 32 0 M0 32 C0.4 11.66, 12.37 0.62, 32 0" stroke="#000000" stroke-width="2" fill="none"></path></g><g stroke-linecap="round" transform="translate(29.081536792361476 698.4789385088214) rotate(0 258.81413172912926 103.31430053710935)"><path d="M33.51 1.35 L485 -0.12 L499.21 2.7 L504.51 4.75 L514.71 13.28 L518.45 25.05 L516.54 176.6 L514.27 190.49 L514.71 193.7 L505.52 201.32 L499.8 206.39 L486.84 206.06 L31.88 206.29 L17.34 204.02 L10.97 203.4 L3.1 193.91 L0.83 183.63 L-1.1 23.72 L0.43 18.19 L7.77 8.24 L18.31 2.05 L31.31 -0.74" stroke="none" stroke-width="0" fill="#82c91e"></path><path d="M32 0 M32 0 C126.38 0.22, 220.52 1.47, 485.63 0 M32 0 C135.93 0.3, 239.37 0.36, 485.63 0 M485.63 0 C508.08 -1.26, 518.47 10.58, 517.63 32 M485.63 0 C505.14 1.12, 519.38 9.37, 517.63 32 M517.63 32 C516.99 80.53, 518.59 131.02, 517.63 174.63 M517.63 32 C518.85 71.98, 517.15 114.22, 517.63 174.63 M517.63 174.63 C519.4 197.46, 508.36 208.22, 485.63 206.63 M517.63 174.63 C517.89 195.44, 505.54 204.69, 485.63 206.63 M485.63 206.63 C359.85 208.18, 235.07 208.75, 32 206.63 M485.63 206.63 C381.33 204.33, 277.36 204.54, 32 206.63 M32 206.63 C9.89 206.17, 1.58 196.5, 0 174.63 M32 206.63 C11.45 207.54, 0.16 195.9, 0 174.63 M0 174.63 C-2.13 142.53, 0.27 110.89, 0 32 M0 174.63 C-2.23 142.99, -0.91 111.31, 0 32 M0 32 C-0.02 8.75, 9.71 1.36, 32 0 M0 32 C0.02 10.98, 12.86 -0.19, 32 0" stroke="#000000" stroke-width="2" fill="none"></path></g><g stroke-linecap="round" transform="translate(28.968350819019633 472.42572642584287) rotate(0 260 105.5)"><path d="M31.88 -0.42 L488.7 -0.62 L502.25 3.58 L508.28 5.82 L516.05 11.41 L521.47 23.14 L521.86 180.58 L517.57 193.39 L514.69 198.67 L509.26 207.72 L501.43 208.88 L487.66 210.34 L31.39 209.47 L19.27 207.6 L12.28 206.83 L6 196.9 L-0.28 184.93 L0.69 24.27 L2.24 18.31 L8.05 7.31 L17.26 0.15 L32.72 -0.78" stroke="none" stroke-width="0" fill="#82c91e"></path><path d="M32 0 M32 0 C183.61 -1.47, 334.58 -1.01, 488 0 M32 0 C190.05 0.48, 348.02 0.42, 488 0 M488 0 C509.25 -1.59, 520.97 12.19, 520 32 M488 0 C508.04 1.15, 519.81 10.15, 520 32 M520 32 C518.23 72, 519.67 113, 520 179 M520 32 C519.58 87.81, 519.62 142.55, 520 179 M520 179 C521.59 200.56, 508.88 209.76, 488 211 M520 179 C518.07 199.78, 507.25 213.18, 488 211 M488 211 C376.12 210.26, 264.26 210.09, 32 211 M488 211 C387.18 208.87, 286.57 209.43, 32 211 M32 211 C11.21 211.69, 0.79 200.47, 0 179 M32 211 C10.61 209.27, 1.18 198.16, 0 179 M0 179 C0.4 143.6, 1.97 112.64, 0 32 M0 179 C0.06 147.35, -1.23 115.23, 0 32 M0 32 C1.36 10.68, 10.94 1.91, 32 0 M0 32 C-0.19 12.53, 11.25 0.92, 32 0" stroke="#000000" stroke-width="2" fill="none"></path></g><g transform="translate(182.876401356129 560.4257264258429) rotate(0 106.09194946289062 17.5)"><text x="106.09194946289062" y="0" font-family="Virgil, Segoe UI Emoji" font-size="28px" fill="#000000" text-anchor="middle" style="white-space: pre;" direction="ltr" dominant-baseline="text-before-edge">Work experience</text></g><g stroke-linecap="round" transform="translate(28.796981538886143 919.9665776926795) rotate(0 257.6721807585781 98.626612145005)"><path d="M33.38 -1.5 L484.52 0.35 L498.34 1.4 L508.05 6.42 L512.15 16.9 L514.13 23.68 L515.77 163.93 L514.93 179.27 L510.91 186.04 L504.71 190.95 L495.88 195.48 L485.33 198.15 L33.26 199.13 L19.39 194.47 L12.71 192.27 L3.64 182.89 L0.5 172.1 L0.36 23.06 L1.81 16.48 L7.79 7.3 L17.42 0.91 L32.76 -0.94" stroke="none" stroke-width="0" fill="#ced4da"></path><path d="M32 0 M32 0 C193.61 -0.15, 356.83 0.32, 483.34 0 M32 0 C122.88 0.34, 214.75 0.68, 483.34 0 M483.34 0 C503.97 -0.67, 515.61 9.09, 515.34 32 M483.34 0 C505.39 -0.43, 514.52 10.25, 515.34 32 M515.34 32 C517.77 68.67, 514.44 102.55, 515.34 165.25 M515.34 32 C513.78 82.13, 514.79 132.68, 515.34 165.25 M515.34 165.25 C515.78 187.64, 505.44 198.01, 483.34 197.25 M515.34 165.25 C514.3 188.47, 504.09 197.25, 483.34 197.25 M483.34 197.25 C320.23 199.02, 157.07 198.53, 32 197.25 M483.34 197.25 C375.69 197.65, 268.58 197.72, 32 197.25 M32 197.25 C9.17 197.3, -0.72 186.14, 0 165.25 M32 197.25 C11.77 197.93, -1.04 188.61, 0 165.25 M0 165.25 C-0.89 116.48, -2.2 69.24, 0 32 M0 165.25 C-1.26 134.33, -1.44 102.83, 0 32 M0 32 C-0.4 12.43, 9.08 0.28, 32 0 M0 32 C0.91 12.41, 8.43 -1.06, 32 0" stroke="#000000" stroke-width="2" fill="none"></path></g><g stroke-linecap="round" transform="translate(30.454732986732665 1135.2601169056284) rotate(0 258.50000000000006 42.5)"><path d="M22 -1.48 L499.1 1.65 L511.08 3.87 L516.67 11.55 L518.22 19.48 L518.55 67.6 L512.98 80.44 L506.18 83.75 L495 83.26 L16.72 84.73 L9.65 83.82 L2.47 74.61 L-1.57 63.08 L-1.92 20.48 L1.27 13.64 L7.06 6.93 L11.85 1.96 L21.49 1.19" stroke="none" stroke-width="0" fill="#40c057"></path><path d="M21.25 0 M21.25 0 C138.21 -2.04, 254.83 -0.42, 495.75 0 M21.25 0 C193.64 1.95, 366.72 2.17, 495.75 0 M495.75 0 C509.54 1.3, 518.03 6.3, 517 21.25 M495.75 0 C511.19 -1.78, 516.49 6.39, 517 21.25 M517 21.25 C517.2 34.1, 515.87 43.15, 517 63.75 M517 21.25 C517.4 33.46, 517.48 44.39, 517 63.75 M517 63.75 C518.29 79.47, 510.11 85.79, 495.75 85 M517 63.75 C519.27 78.25, 510.48 83.96, 495.75 85 M495.75 85 C359 85.19, 221.72 85.89, 21.25 85 M495.75 85 C371.36 86.88, 247.3 87.24, 21.25 85 M21.25 85 C7.14 85.52, -1.92 78.14, 0 63.75 M21.25 85 C5.33 86.66, -0.48 78.52, 0 63.75 M0 63.75 C0.26 53.39, -1.65 44.61, 0 21.25 M0 63.75 C0.5 52.25, -0.36 38.83, 0 21.25 M0 21.25 C0.87 5.4, 8.21 0.64, 21.25 0 M0 21.25 C-2.28 6.62, 5.52 1.75, 21.25 0" stroke="#000000" stroke-width="2" fill="none"></path></g><g transform="translate(243.8187542880022 1160.2601169056284) rotate(0 45.13597869873047 17.5)"><text x="45.13597869873047" y="0" font-family="Virgil, Segoe UI Emoji" font-size="28px" fill="#000000" text-anchor="middle" style="white-space: pre;" direction="ltr" dominant-baseline="text-before-edge">Footer</text></g><g transform="translate(245.61505930370663 106.98519030842078) rotate(0 33.571983337402344 17.5)"><text x="33.571983337402344" y="0" font-family="Virgil, Segoe UI Emoji" font-size="28px" fill="#000000" text-anchor="middle" style="white-space: pre;" direction="ltr" dominant-baseline="text-before-edge">Title</text></g><g transform="translate(109.25027444202965 50.3060319581989) rotate(0 32.871986389160156 17.5)"><text x="32.871986389160156" y="0" font-family="Virgil, Segoe UI Emoji" font-size="28px" fill="#000000" text-anchor="middle" style="white-space: pre;" direction="ltr" dominant-baseline="text-before-edge">Menu</text></g><g transform="translate(325.9375918522835 177.09098127540665) rotate(0 76.60796356201172 17.5)"><text x="76.60796356201172" y="0" font-family="Virgil, Segoe UI Emoji" font-size="28px" fill="#000000" text-anchor="middle" style="white-space: pre;" direction="ltr" dominant-baseline="text-before-edge">Background</text></g><g transform="translate(205.39705193052578 338.1420933663038) rotate(0 84.06995391845703 17.5)"><text x="84.06995391845703" y="0" font-family="Virgil, Segoe UI Emoji" font-size="28px" fill="#000000" text-anchor="middle" style="white-space: pre;" direction="ltr" dominant-baseline="text-before-edge">Introduction</text></g><g transform="translate(261.24488011422227 780.1761650257298) rotate(0 33.361976623535156 17.5)"><text x="33.361976623535156" y="0" font-family="Virgil, Segoe UI Emoji" font-size="28px" fill="#000000" text-anchor="middle" style="white-space: pre;" direction="ltr" dominant-baseline="text-before-edge">Skills</text></g><g transform="translate(260.5063011362888 1001.1930864796759) rotate(0 30.673988342285156 17.5)"><text x="30.673988342285156" y="0" font-family="Virgil, Segoe UI Emoji" font-size="28px" fill="#000000" text-anchor="middle" style="white-space: pre;" direction="ltr" dominant-baseline="text-before-edge">Form</text></g><g stroke-linecap="round" transform="translate(73.58993528381097 269.6097024613425) rotate(0 20.55966498542307 10.27984883210678)"><path d="M27.8 3.37 L38.9 10.04 L21.68 20.22 L0.77 12.56 L18.4 2.11 L24.36 1.44" stroke="none" stroke-width="0" fill="#fa5252"></path><path d="M26.25 2.75 M26.25 2.75 C29.8 4.69, 34.23 6.62, 35.87 8.25 M26.25 2.75 C28.95 5.03, 33.04 6.94, 35.87 8.25 M35.87 8.25 C41.31 12.92, 42.47 9.55, 35.87 13.75 M35.87 8.25 C43.36 12.4, 40.99 8.98, 35.87 13.75 M35.87 13.75 C31.96 14.21, 28.83 15.75, 26.25 17.81 M35.87 13.75 C32.6 15.1, 28.61 17.42, 26.25 17.81 M26.25 17.81 C22.69 18.71, 19.87 20.1, 15.75 17.81 M26.25 17.81 C21.69 19.18, 18.89 18.93, 15.75 17.81 M15.75 17.81 C12.86 17.67, 12.09 16.28, 5.25 13.75 M15.75 17.81 C12.09 16.1, 8.62 15.1, 5.25 13.75 M5.25 13.75 C0.36 12.4, -0.25 12.29, 5.25 8.25 M5.25 13.75 C1.57 8.98, 0.62 12.79, 5.25 8.25 M5.25 8.25 C8.39 6.08, 9.96 6.98, 15.75 2.75 M5.25 8.25 C7.06 7.28, 9.36 5.8, 15.75 2.75 M15.75 2.75 C22.66 -0.61, 22.23 -0.27, 26.25 2.75 M15.75 2.75 C21.93 1.28, 21.52 2.08, 26.25 2.75" stroke="#000000" stroke-width="2" fill="none"></path></g><g stroke-linecap="round" transform="translate(80.4430698021772 958.360244127703) rotate(0 13.706530467056837 10.279832492711535)"><path d="M15.74 3.17 L28.26 11.38 L13.79 17.7 L10.85 18.16 L2.68 9.37 L12.89 3.19 L16.54 3.81" stroke="none" stroke-width="0" fill="#fa5252"></path><path d="M17.5 2.75 M17.5 2.75 C19.59 4.78, 22.84 6.63, 23.91 8.25 M17.5 2.75 C18.43 4.21, 19.88 5.35, 23.91 8.25 M23.91 8.25 C28.82 11.24, 27.97 11.72, 23.91 13.75 M23.91 8.25 C25.87 10.18, 26.14 10.06, 23.91 13.75 M23.91 13.75 C21.88 15.52, 20.54 15.59, 17.5 17.81 M23.91 13.75 C21.89 15.12, 20.07 16.02, 17.5 17.81 M17.5 17.81 C14.68 22.28, 12.08 20.1, 10.5 17.81 M17.5 17.81 C15.86 19.23, 14.9 19.84, 10.5 17.81 M10.5 17.81 C9.01 16.55, 6.88 15.97, 3.5 13.75 M10.5 17.81 C8.35 16.21, 5.57 15.08, 3.5 13.75 M3.5 13.75 C-1.36 10.85, -0.27 9.13, 3.5 8.25 M3.5 13.75 C-1.35 11.26, -2.27 12.21, 3.5 8.25 M3.5 8.25 C5.72 6.91, 6.58 6.46, 10.5 2.75 M3.5 8.25 C5.56 6.46, 7.79 5.22, 10.5 2.75 M10.5 2.75 C16 0.89, 14.85 0.66, 17.5 2.75 M10.5 2.75 C15.98 1.2, 13.52 0.95, 17.5 2.75" stroke="#000000" stroke-width="2" fill="none"></path></g><g stroke-linecap="round" transform="translate(462.51120138339206 57.15931353112103) rotate(0 15.419814096648338 15.419773248160197)"><path d="M18.58 2.27 L28.11 17.23 L14.79 31.02 L2.4 16.24 L14.93 2.47 L14.66 0.29 L18.9 3.18" stroke="none" stroke-width="0" fill="#fa5252"></path><path d="M20 4 M20 4 C21.96 7.06, 24.89 7.89, 26.84 12 M20 4 C22.36 6.83, 24.98 8.85, 26.84 12 M26.84 12 C31.52 17.72, 28.92 15.54, 26.84 20 M26.84 12 C32.7 14.67, 31.74 15.28, 26.84 20 M26.84 20 C25.58 21.76, 23.47 24.34, 20 26.84 M26.84 20 C24.87 21.85, 22.04 24.27, 20 26.84 M20 26.84 C14.64 30.69, 15.73 28.97, 12 26.84 M20 26.84 C14.65 31.1, 13.73 32.05, 12 26.84 M12 26.84 C10.67 25.1, 7.73 24.5, 4 20 M12 26.84 C9.37 24.56, 6.93 22.99, 4 20 M4 20 C2 16.89, 0.85 16.66, 4 12 M4 20 C1.98 17.2, -0.48 16.95, 4 12 M4 12 C5.45 9.63, 8.32 6.22, 12 4 M4 12 C6.81 9.5, 8.53 6.88, 12 4 M12 4 C15.6 1.82, 14.77 -0.82, 20 4 M12 4 C17.72 2.29, 18.28 -0.47, 20 4" stroke="#000000" stroke-width="2" fill="none"></path></g><g stroke-linecap="round" transform="translate(227.7878148199702 612.2716569861407) rotate(0 69.38903271975539 5.139916246355767)"><path d="M85.79 2.18 L136.12 4.08 L69.54 11.53 L3.22 6.78 L66.03 0.03 L89.16 0.89" stroke="none" stroke-width="0" fill="#fa5252"></path><path d="M87.5 1.5 M87.5 1.5 C100.83 2.9, 113.75 5.35, 121.28 4.5 M87.5 1.5 C98.41 2.14, 110.13 3.69, 121.28 4.5 M121.28 4.5 C136.91 4.83, 139.01 4.03, 121.28 7.5 M121.28 4.5 C139.99 4.7, 136.92 5.07, 121.28 7.5 M121.28 7.5 C111.29 8.04, 98.21 7.64, 87.5 8.78 M121.28 7.5 C112.71 8.82, 102.91 8.6, 87.5 8.78 M87.5 8.78 C70.66 12, 71.05 9.86, 52.5 8.78 M87.5 8.78 C70.95 10.09, 71.97 11.54, 52.5 8.78 M52.5 8.78 C42.63 8.58, 35.09 8.02, 17.5 7.5 M52.5 8.78 C39.97 7.84, 28.99 6.98, 17.5 7.5 M17.5 7.5 C-0.82 7.5, 1.99 7.98, 17.5 4.5 M17.5 7.5 C-0.47 8.04, -1.93 4.39, 17.5 4.5 M17.5 4.5 C32.87 4.84, 44.39 2.83, 52.5 1.5 M17.5 4.5 C30.02 2.55, 44.98 1.55, 52.5 1.5 M52.5 1.5 C68.71 1.04, 71.9 -0.75, 87.5 1.5 M52.5 1.5 C69.51 1.51, 71.6 0.39, 87.5 1.5" stroke="#000000" stroke-width="2" fill="none"></path></g><g stroke-linecap="round" transform="translate(688.6680390836941 954.93367686852) rotate(0 24.843004774564065 19.70302317062726)"><path d="M32.97 6.09 L46.68 20.02 L28.68 34.16 L23.98 36.47 L1.48 20.98 L23.7 -0.2 L25.56 1.08 L33.07 3.77" stroke="none" stroke-width="0" fill="#fa5252"></path><path d="M31.25 5 M31.25 5 C36.04 7.15, 39.04 8.74, 43.44 15 M31.25 5 C34.4 7.97, 37.58 9.48, 43.44 15 M43.44 15 C50.45 21.65, 49.91 19.9, 43.44 25 M43.44 15 C47.68 18.12, 51.3 18.46, 43.44 25 M43.44 25 C40.04 27, 38.76 30.61, 31.25 34.41 M43.44 25 C39.75 27.25, 35.7 30.19, 31.25 34.41 M31.25 34.41 C23.53 40.08, 24.92 40.19, 18.75 34.41 M31.25 34.41 C25.06 40.8, 26.4 41.16, 18.75 34.41 M18.75 34.41 C13.9 30.93, 9.53 28.18, 6.25 25 M18.75 34.41 C16.43 32.79, 13.61 30.98, 6.25 25 M6.25 25 C-1.82 19.42, -0.12 21.41, 6.25 15 M6.25 25 C-0.96 18.87, 0.88 17.84, 6.25 15 M6.25 15 C8.57 12.29, 11.19 11.4, 18.75 5 M6.25 15 C10.97 12.57, 14.13 8.17, 18.75 5 M18.75 5 C25.06 -0.44, 24.6 -1.77, 31.25 5 M18.75 5 C27.06 0.61, 23.27 1.04, 31.25 5" stroke="#000000" stroke-width="2" fill="none"></path></g><g transform="translate(757.2367158284526 961.7869421020482) rotate(0 133.6019287109375 17.5)"><text x="133.6019287109375" y="0" font-family="Virgil, Segoe UI Emoji" font-size="28px" fill="#000000" text-anchor="middle" style="white-space: pre;" direction="ltr" dominant-baseline="text-before-edge">design modifications</text></g><g stroke-linecap="round" transform="translate(640.6954438793196 46.879481038409494) rotate(0 39.406111698835616 34.26619545247985)"><path d="M51.06 6.93 L74.16 32.44 L74.9 36.35 L69.48 45.4 L47.64 64.1 L38.64 66.63 L35.19 63.18 L8.91 43.69 L0.97 36.02 L6.41 30.42 L37.59 2.86 L40 3.08 L51.16 8.75" stroke="none" stroke-width="0" fill="#82c91e"></path><path d="M50 8.75 M50 8.75 C54.28 12.89, 60.91 18.69, 68.81 26.25 M50 8.75 C54.94 12.58, 59.15 16.93, 68.81 26.25 M68.81 26.25 C79.68 35.17, 79.02 35.72, 68.81 43.75 M68.81 26.25 C77.05 34.78, 76.69 36.68, 68.81 43.75 M68.81 43.75 C59.98 47.96, 56.47 54.27, 50 59.78 M68.81 43.75 C62 47.98, 57.13 53.55, 50 59.78 M50 59.78 C39.08 70.24, 40.41 68.66, 30 59.78 M50 59.78 C41.32 67.35, 41.53 66.78, 30 59.78 M30 59.78 C24.13 53.26, 17.85 50.8, 10 43.75 M30 59.78 C22.07 54.6, 14.85 48.11, 10 43.75 M10 43.75 C-1.72 36.39, -0.24 36.26, 10 26.25 M10 43.75 C-1.07 34.36, 0.47 35.8, 10 26.25 M10 26.25 C18.67 21.16, 26.54 13.9, 30 8.75 M10 26.25 C18.35 19.53, 25.11 11.99, 30 8.75 M30 8.75 C39.08 1.72, 41.77 1.72, 50 8.75 M30 8.75 C37.9 -0.77, 41.58 -2.1, 50 8.75" stroke="#000000" stroke-width="2" fill="none"></path></g><g stroke-linecap="round" transform="translate(642.4085967937488 165.09783247431153) rotate(0 41.11946068600821 38.54946988403975)"><path d="M50.84 8.02 L79.57 33.57 L79.98 37.7 L78.51 41.53 L50.6 68.14 L41.03 73.74 L39.45 73.24 L10.63 49.9 L1.6 40.33 L5.53 33.24 L41.23 4.13 L45 1.67 L53.95 11.47" stroke="none" stroke-width="0" fill="#ced4da"></path><path d="M52.5 9.75 M52.5 9.75 C57.54 17.75, 64.27 23.2, 71.74 29.25 M52.5 9.75 C57.39 13.48, 60.59 18.33, 71.74 29.25 M71.74 29.25 C82.93 40.85, 81.31 38.5, 71.74 48.75 M71.74 29.25 C83.09 40.98, 83.12 40.53, 71.74 48.75 M71.74 48.75 C65.42 56.44, 55.45 62.59, 52.5 67.35 M71.74 48.75 C67.87 52.74, 61.78 59.06, 52.5 67.35 M52.5 67.35 C40.17 75.47, 42.07 77.37, 31.5 67.35 M52.5 67.35 C44.2 75.39, 40.18 75.97, 31.5 67.35 M31.5 67.35 C24.5 64.55, 21.82 57.77, 10.5 48.75 M31.5 67.35 C25.32 61.28, 19.95 57.36, 10.5 48.75 M10.5 48.75 C-0.64 37.32, 1.87 40.9, 10.5 29.25 M10.5 48.75 C0.91 38.27, 0.91 39.51, 10.5 29.25 M10.5 29.25 C15.24 24.2, 20.34 19.64, 31.5 9.75 M10.5 29.25 C15.79 24.52, 21.57 17.61, 31.5 9.75 M31.5 9.75 C41.03 -0.77, 40.27 -0.59, 52.5 9.75 M31.5 9.75 C43.85 0.44, 42.03 0.42, 52.5 9.75" stroke="#000000" stroke-width="2" fill="none"></path></g><g stroke-linecap="round" transform="translate(645.8354254832564 285.02954923678146) rotate(0 41.11939532842723 35.97947908207135)"><path d="M51.86 7.32 L79.52 34.24 L80.4 35.36 L78.44 40.1 L50.69 62.58 L43.69 70.01 L34.2 66.91 L9.24 44.55 L1.71 35.29 L5.78 31.21 L38.62 0.9 L43.04 1.9 L50.77 8.41" stroke="none" stroke-width="0" fill="#fa5252"></path><path d="M52.5 9 M52.5 9 C60.22 14.88, 65.59 24.2, 71.74 27 M52.5 9 C59.77 14.51, 65.92 20.05, 71.74 27 M71.74 27 C82.24 37.76, 81.09 36.66, 71.74 45 M71.74 27 C82.48 37.38, 81.23 35.56, 71.74 45 M71.74 45 C69.15 49.71, 62.17 54.72, 52.5 62.96 M71.74 45 C66.02 50.92, 60.88 56.02, 52.5 62.96 M52.5 62.96 C41.91 72.73, 40.02 70.17, 31.5 62.96 M52.5 62.96 C39.83 69.68, 42.33 69.88, 31.5 62.96 M31.5 62.96 C26.23 59.02, 20.22 51.54, 10.5 45 M31.5 62.96 C23.6 55.95, 15.53 49.44, 10.5 45 M10.5 45 C-0.77 37.28, 0.46 35.82, 10.5 27 M10.5 45 C-2.2 33.87, -0.51 34.47, 10.5 27 M10.5 27 C18.27 21.83, 23.4 14.33, 31.5 9 M10.5 27 C18.47 21.42, 25.63 14.97, 31.5 9 M31.5 9 C41.14 -0.3, 42.76 -0.93, 52.5 9 M31.5 9 C41.49 -0.18, 40.43 1.81, 52.5 9" stroke="#000000" stroke-width="2" fill="none"></path></g><g stroke-linecap="round"><g transform="translate(894.2653425137348 70.86576230120147) rotate(0 -65.09674364111561 -0.32365661524238476)"><path d="M0.85 0.33 C-20.85 0, -108.65 -0.79, -130.73 -0.98 M-0.16 -0.54 C-21.87 -0.23, -109.05 -0.06, -131.05 0.04" stroke="#000000" stroke-width="2" fill="none"></path></g><g transform="translate(894.2653425137348 70.86576230120147) rotate(0 -65.09674364111561 -0.32365661524238476)"><path d="M-102.34 -8.32 C-111.69 -6.87, -118.63 -6.11, -129.66 1.8 M-102.87 -10.74 C-109.77 -7.78, -118.31 -5.78, -131.07 -0.48" stroke="#000000" stroke-width="2" fill="none"></path></g><g transform="translate(894.2653425137348 70.86576230120147) rotate(0 -65.09674364111561 -0.32365661524238476)"><path d="M-102.27 12.2 C-111.81 8.37, -118.77 3.83, -129.66 1.8 M-102.8 9.78 C-109.67 7.05, -118.23 3.36, -131.07 -0.48" stroke="#000000" stroke-width="2" fill="none"></path></g></g><mask></mask><g stroke-linecap="round"><g transform="translate(900.6810434412521 197.1177100794605) rotate(0 -65.76524936421947 0.15818704532455286)"><path d="M-0.9 -0.15 C-22.67 -0.21, -109.72 -0.03, -131.59 0.03 M0.83 -1.27 C-20.98 -1.16, -110.06 1.11, -132.36 1.59" stroke="#000000" stroke-width="2" fill="none"></path></g><g transform="translate(900.6810434412521 197.1177100794605) rotate(0 -65.76524936421947 0.15818704532455286)"><path d="M-104.67 -8.77 C-110.46 -7.45, -116.31 -4.64, -130.62 3.42 M-104.68 -10.24 C-115.26 -5.31, -126.81 -0.31, -132.71 2.28" stroke="#000000" stroke-width="2" fill="none"></path></g><g transform="translate(900.6810434412521 197.1177100794605) rotate(0 -65.76524936421947 0.15818704532455286)"><path d="M-104.19 11.74 C-110.15 8.56, -116.1 6.86, -130.62 3.42 M-104.2 10.27 C-115.12 7.16, -126.87 4.13, -132.71 2.28" stroke="#000000" stroke-width="2" fill="none"></path></g></g><mask></mask><g stroke-linecap="round"><g transform="translate(898.9678905268231 317.0494268419304) rotate(0 -66.25921560711402 0.15244202356785763)"><path d="M0.03 -0.18 C-21.89 -0.23, -109.9 -0.15, -131.72 0.06 M-1.41 -1.33 C-23.46 -1.19, -110.94 1.52, -132.55 1.63" stroke="#000000" stroke-width="2" fill="none"></path></g><g transform="translate(898.9678905268231 317.0494268419304) rotate(0 -66.25921560711402 0.15244202356785763)"><path d="M-104.88 -8.83 C-112.48 -4.32, -118.81 -1.12, -130.99 0.56 M-104.68 -9.76 C-111.73 -6.56, -119.32 -3.42, -133.17 2.43" stroke="#000000" stroke-width="2" fill="none"></path></g><g transform="translate(898.9678905268231 317.0494268419304) rotate(0 -66.25921560711402 0.15244202356785763)"><path d="M-104.47 11.69 C-112.25 10.29, -118.69 7.6, -130.99 0.56 M-104.28 10.75 C-111.25 8.33, -118.95 5.84, -133.17 2.43" stroke="#000000" stroke-width="2" fill="none"></path></g></g><mask></mask><g transform="translate(927.936193220273 52.159280852330426) rotate(0 93.11396789550781 22.5)"><text x="93.11396789550781" y="0" font-family="Virgil, Segoe UI Emoji" font-size="36px" fill="#000000" text-anchor="middle" style="white-space: pre;" direction="ltr" dominant-baseline="text-before-edge">Must have</text></g><g transform="translate(923.7375872158384 173.66441401622205) rotate(0 104.16596984863281 22.5)"><text x="104.16596984863281" y="0" font-family="Virgil, Segoe UI Emoji" font-size="36px" fill="#000000" text-anchor="middle" style="white-space: pre;" direction="ltr" dominant-baseline="text-before-edge">Should have</text></g><g transform="translate(931.9813290814125 293.5960980999015) rotate(0 95.92196655273438 22.5)"><text x="95.92196655273438" y="0" font-family="Virgil, Segoe UI Emoji" font-size="36px" fill="#000000" text-anchor="middle" style="white-space: pre;" direction="ltr" dominant-baseline="text-before-edge">Could have</text></g></svg>